<?xml version="1.0" encoding="UTF-8"?>
<svg xmlns="http://www.w3.org/2000/svg" version="1.1" viewBox="0 0 256 256">
  <!-- Generator: Adobe Illustrator 30.1.0, SVG Export Plug-In . SVG Version: 2.1.1 Build 136)  -->
  <defs>
    <style>
      .st0 {
        fill: #fffae0;
      }

      .st1 {
        fill: #283618;
      }
    </style>
  </defs>
  <g id="Layer_2">
    <rect class="st0" width="256" height="256"/>
  </g>
  <g id="Layer_1">
    <path class="st1" d="M128,18.37c29.28,0,56.82,11.4,77.52,32.11,20.71,20.71,32.11,48.24,32.11,77.52s-11.4,56.82-32.11,77.52c-20.71,20.71-48.24,32.11-77.52,32.11s-56.82-11.4-77.52-32.11c-20.71-20.71-32.11-48.24-32.11-77.52s11.4-56.82,32.11-77.52c20.71-20.7,48.24-32.11,77.52-32.11M128,4.37C59.72,4.37,4.37,59.72,4.37,128s55.35,123.63,123.63,123.63,123.63-55.35,123.63-123.63S196.28,4.37,128,4.37h0Z"/>
    <polygon class="st1" points="205.87 175.63 149.15 175.63 149.15 205.92 106.85 205.92 106.85 175.63 50.13 175.63 89.07 116.14 73.41 116.14 128 32.74 182.59 116.14 166.93 116.14 205.87 175.63"/>
    <path class="st1" d="M136.74,88.46c0,4.88-3.93,8.81-8.74,8.81s-8.73-3.93-8.73-8.81,3.92-8.73,8.73-8.73,8.74,3.92,8.74,8.73Z"/>
    <polygon class="st1" points="133.86 147.72 123.93 147.72 128.37 130.93 129.42 130.93 133.86 147.72"/>
  </g>
</svg>